<svg width="41" height="41" viewBox="0 0 41 41" fill="none" xmlns="http://www.w3.org/2000/svg">
<g clip-path="url(#clip0_31_71)">
<path d="M26.8455 27.6818H39.5357V6.76373H10.25V16.2466" fill="#D6E5F6"/>
<path d="M24.8928 6.76373V26.3364L26.8455 27.6818H39.5357V6.76373H24.8928Z" fill="#BCD6F2"/>
<path d="M39.5357 29.1461H26.8455C26.0368 29.1461 25.3812 28.4906 25.3812 27.6818C25.3812 26.8733 26.0368 26.2175 26.8455 26.2175H38.0715V8.22806H11.7143V16.2466C11.7143 17.0553 11.0587 17.7109 10.25 17.7109C9.44129 17.7109 8.78569 17.0553 8.78569 16.2466V6.76375C8.78569 5.95504 9.44129 5.29944 10.25 5.29944H39.5357C40.3444 5.29944 41 5.95504 41 6.76375V27.6818C41 28.4906 40.3444 29.1461 39.5357 29.1461Z" fill="#A8DA64"/>
<path d="M15.8283 5.29944H10.25C9.44129 5.29944 8.78569 5.95504 8.78569 6.76375V12.3418C8.78569 13.1506 9.44129 13.8061 10.25 13.8061C14.1333 13.8061 17.2926 10.647 17.2926 6.76383C17.2926 5.95512 16.637 5.29944 15.8283 5.29944Z" fill="#A8DA64"/>
<path d="M39.5357 20.6395C35.6525 20.6395 32.4932 23.7987 32.4932 27.682C32.4932 28.4908 33.1488 29.1463 33.9575 29.1463H39.5357C40.3444 29.1463 41 28.4908 41 27.682V22.1038C41 21.2951 40.3444 20.6395 39.5357 20.6395Z" fill="#78B86D"/>
<path d="M39.5357 5.29944H33.9575C33.1488 5.29944 32.4932 5.95504 32.4932 6.76375C32.4932 10.6468 35.6524 13.8061 39.5357 13.8061C40.3444 13.8061 41 13.1505 41 12.3417V6.76375C41 5.95512 40.3444 5.29944 39.5357 5.29944Z" fill="#78B86D"/>
<path d="M24.8928 13.0135C22.7494 13.0135 20.832 14.0121 20.0082 15.5576C19.7662 16.0113 19.7801 16.5589 20.0447 16.9999C20.3093 17.4409 20.786 17.7106 21.3001 17.7107L25.3812 17.7108L25.3813 19.5874C25.3813 20.0782 25.6273 20.5363 26.0363 20.8077C26.2799 20.9691 26.562 21.0517 26.8457 21.0517C27.0386 21.0517 27.2322 21.0135 27.4151 20.9363C29.1331 20.211 30.2002 18.7882 30.2002 17.2228C30.2002 14.8624 27.8689 13.0135 24.8928 13.0135Z" fill="#A8DA64"/>
<path d="M24.8928 13.0135V17.7108H25.3812L25.3813 19.5874C25.3813 20.0782 25.6273 20.5363 26.0363 20.8076C26.2799 20.9691 26.562 21.0517 26.8457 21.0517C27.0386 21.0517 27.2322 21.0135 27.4151 20.9363C29.1331 20.2111 30.2002 18.7881 30.2002 17.2228C30.2002 14.8625 27.8689 13.0135 24.8928 13.0135Z" fill="#78B86D"/>
<path d="M39.5357 5.29944H24.8928V8.22798H38.0714V26.2176H26.8455C26.0368 26.2176 25.3812 26.8733 25.3812 27.6819C25.3812 28.4907 26.0368 29.1462 26.8455 29.1462H39.5358C40.3445 29.1462 41.0001 28.4907 41.0001 27.6819V6.76375C41 5.95512 40.3444 5.29944 39.5357 5.29944Z" fill="#78B86D"/>
<path d="M26.8455 14.7823H1.46431C0.6556 14.7823 0 15.4379 0 16.2466V34.2363C0 35.045 0.6556 35.7006 1.46431 35.7006H26.8455C27.6542 35.7006 28.3098 35.045 28.3098 34.2363V16.2466C28.3097 15.4379 27.6541 14.7823 26.8455 14.7823Z" fill="#8CB7E8"/>
<path d="M26.8455 14.7823H14.1549V35.7006H26.8454C27.6541 35.7006 28.3097 35.045 28.3097 34.2363V16.2466C28.3097 15.4379 27.6541 14.7823 26.8455 14.7823Z" fill="#6398DE"/>
<path d="M26.8455 23.5679H1.46431C0.6556 23.5679 0 22.9123 0 22.1037C0 21.295 0.6556 20.6394 1.46431 20.6394H26.8455C27.6542 20.6394 28.3098 21.295 28.3098 22.1037C28.3098 22.9124 27.6541 23.5679 26.8455 23.5679Z" fill="#294996"/>
<path d="M12.2025 26.4966H7.32146C6.51275 26.4966 5.85715 27.1522 5.85715 27.9609C5.85715 28.7696 6.51275 29.4252 7.32146 29.4252H12.2026C13.0113 29.4252 13.6669 28.7696 13.6669 27.9609C13.6669 27.1522 13.0113 26.4966 12.2025 26.4966Z" fill="#D6E5F6"/>
<path d="M26.8455 20.6394H14.1549V23.5679H26.8454C27.6541 23.5679 28.3097 22.9123 28.3097 22.1036C28.3097 21.295 27.6541 20.6394 26.8455 20.6394Z" fill="#1D3366"/>
</g>
<defs>
<clipPath id="clip0_31_71">
<rect width="41" height="41" fill="white"/>
</clipPath>
</defs>
</svg>
