<svg width="42" height="42" viewBox="0 0 42 42" fill="none" xmlns="http://www.w3.org/2000/svg">
<path fill-rule="evenodd" clip-rule="evenodd" d="M12.25 3.5C11.7859 3.5 11.3408 3.68437 11.0126 4.01256C10.6844 4.34075 10.5 4.78587 10.5 5.25V7.00175C8.81825 7.02625 8.155 7.2275 7.48825 7.5845C6.78367 7.95749 6.20749 8.53367 5.8345 9.23825C5.453 9.9505 5.25 10.6575 5.25 12.6087V31.1412C5.25 33.0907 5.453 33.7995 5.8345 34.5117C6.216 35.224 6.776 35.784 7.48825 36.1655C8.2005 36.547 8.9075 36.75 10.8587 36.75H31.1413C33.0907 36.75 33.7995 36.547 34.5118 36.1655C35.224 35.784 35.784 35.224 36.1655 34.5117C36.547 33.7995 36.75 33.0925 36.75 31.1412V12.6087C36.75 10.6575 36.547 9.9505 36.1655 9.23825C35.7925 8.53367 35.2163 7.95749 34.5118 7.5845C33.845 7.2275 33.1817 7.02625 31.5 7V5.25C31.5 4.78587 31.3156 4.34075 30.9874 4.01256C30.6593 3.68437 30.2141 3.5 29.75 3.5C29.2859 3.5 28.8407 3.68437 28.5126 4.01256C28.1844 4.34075 28 4.78587 28 5.25V7H14V5.25C14 4.78587 13.8156 4.34075 13.4874 4.01256C13.1592 3.68437 12.7141 3.5 12.25 3.5ZM8.75 15.75V31.1412C8.75 31.8885 8.78325 32.3557 8.83575 32.627C8.85675 32.732 8.8655 32.7565 8.9215 32.8615C8.96791 32.9562 9.04415 33.0331 9.1385 33.0802C9.2435 33.1345 9.26625 33.1432 9.373 33.1642C9.64425 33.2167 10.1115 33.25 10.8587 33.25H31.1413C31.8885 33.25 32.3557 33.2167 32.627 33.1642C32.7102 33.1519 32.79 33.1227 32.8615 33.0785C32.9562 33.0321 33.0331 32.9558 33.0802 32.8615C33.1239 32.7898 33.1525 32.7101 33.1642 32.627C33.2168 32.3557 33.25 31.8885 33.25 31.1412L33.257 15.75H8.75ZM24.0625 22.75C23.7144 22.75 23.3806 22.8883 23.1344 23.1344C22.8883 23.3806 22.75 23.7144 22.75 24.0625V28.4375C22.75 29.162 23.338 29.75 24.0625 29.75H28.4375C28.7856 29.75 29.1194 29.6117 29.3656 29.3656C29.6117 29.1194 29.75 28.7856 29.75 28.4375V24.0625C29.75 23.7144 29.6117 23.3806 29.3656 23.1344C29.1194 22.8883 28.7856 22.75 28.4375 22.75H24.0625Z" fill="currentColor"/>
</svg>
