<svg width="31" height="40" viewBox="0 0 31 40" fill="none" xmlns="http://www.w3.org/2000/svg">
<path d="M27.5303 5.23973H18.7013V1.24372C18.7013 1.11777 18.6615 0.996966 18.5906 0.907901C18.5197 0.818835 18.4235 0.768799 18.3233 0.768799H0.378049C0.277784 0.768799 0.181626 0.818835 0.110728 0.907901C0.0398301 0.996966 0 1.11777 0 1.24372C0 1.24942 0 1.25417 0 1.25987V30.879C0.00149331 32.0232 0.360977 33.1208 1.0009 33.935C1.64082 34.7492 2.50988 35.2147 3.42059 35.2312C3.42512 35.2315 3.42966 35.2315 3.4342 35.2312H3.44781C3.45537 35.2312 3.46217 35.2312 3.46973 35.2312C3.47729 35.2312 3.4841 35.2312 3.49166 35.2312H12.3002V39.2376C12.3002 39.3636 12.34 39.4844 12.4109 39.5735C12.4818 39.6625 12.578 39.7126 12.6782 39.7126H30.622C30.7222 39.7126 30.8184 39.6625 30.8893 39.5735C30.9602 39.4844 31 39.3636 31 39.2376V9.60238C30.9986 8.44653 30.6327 7.33847 29.9824 6.5208C29.3321 5.70314 28.4503 5.24249 27.5303 5.23973Z" fill="#929292"/>
<path d="M0.756097 30.879V1.71863H17.9452V5.23971H9.89202C9.86662 5.23942 9.84127 5.2426 9.81642 5.24921C9.74081 5.24256 9.6652 5.23971 9.58959 5.23971C8.66964 5.24222 7.78795 5.70249 7.13752 6.51978C6.48709 7.33706 6.1209 8.44478 6.1191 9.60046C6.1191 9.60046 6.18412 30.7498 6.18412 30.8827C6.18315 31.7815 5.89987 32.6434 5.39585 33.2812C4.89183 33.919 4.20779 34.2811 3.49241 34.2889H3.44781C2.73197 34.2809 2.04759 33.9182 1.54353 33.2796C1.03946 32.641 0.756467 31.7783 0.756097 30.879Z" fill="#FFD782"/>
<path d="M5.60873 34.2887C6.02147 33.8847 6.35573 33.3682 6.58626 32.7781C6.81679 32.1881 6.93757 31.5399 6.93946 30.8826C6.93946 30.7876 6.87444 9.5965 6.87444 9.5984C6.88632 8.70401 7.17749 7.8513 7.68517 7.22408C8.19285 6.59686 8.8764 6.24536 9.58845 6.24536C10.3005 6.24536 10.984 6.59686 11.4917 7.22408C11.9994 7.8513 12.2906 8.70401 12.3025 9.5984V34.2887H5.60873Z" fill="#FFC36E"/>
<path d="M30.2439 38.7628H13.0563V9.60248C13.0562 8.94701 12.9383 8.30003 12.7114 7.70977C12.4845 7.11951 12.1545 6.6012 11.746 6.19348H27.5303C28.2497 6.19449 28.9395 6.55397 29.4482 7.19307C29.9569 7.83216 30.2431 8.69867 30.2439 9.60248V38.7628Z" fill="#F2F2F2"/>
<path d="M27.6959 31.8658H15.6028C15.5026 31.8658 15.4064 31.9159 15.3355 32.0049C15.2646 32.094 15.2248 32.2148 15.2248 32.3408C15.2248 32.4667 15.2646 32.5875 15.3355 32.6766C15.4064 32.7657 15.5026 32.8157 15.6028 32.8157H27.6959C27.7961 32.8157 27.8923 32.7657 27.9632 32.6766C28.0341 32.5875 28.0739 32.4667 28.0739 32.3408C28.0739 32.2148 28.0341 32.094 27.9632 32.0049C27.8923 31.9159 27.7961 31.8658 27.6959 31.8658Z" fill="#AFB9D2"/>
<path d="M27.6959 26.597H15.6028C15.5026 26.597 15.4064 26.6471 15.3355 26.7361C15.2646 26.8252 15.2248 26.946 15.2248 27.072C15.2248 27.1979 15.2646 27.3187 15.3355 27.4078C15.4064 27.4969 15.5026 27.5469 15.6028 27.5469H27.6959C27.7961 27.5469 27.8923 27.4969 27.9632 27.4078C28.0341 27.3187 28.0739 27.1979 28.0739 27.072C28.0739 26.946 28.0341 26.8252 27.9632 26.7361C27.8923 26.6471 27.7961 26.597 27.6959 26.597Z" fill="#AFB9D2"/>
<path d="M27.6959 21.3386H15.6028C15.5026 21.3386 15.4064 21.3887 15.3355 21.4777C15.2646 21.5668 15.2248 21.6876 15.2248 21.8135C15.2248 21.9395 15.2646 22.0603 15.3355 22.1494C15.4064 22.2384 15.5026 22.2885 15.6028 22.2885H27.6959C27.7961 22.2885 27.8923 22.2384 27.9632 22.1494C28.0341 22.0603 28.0739 21.9395 28.0739 21.8135C28.0739 21.6876 28.0341 21.5668 27.9632 21.4777C27.8923 21.3887 27.7961 21.3386 27.6959 21.3386Z" fill="#AFB9D2"/>
<path d="M27.6959 16.1115H15.6028C15.5026 16.1115 15.4064 16.1615 15.3355 16.2506C15.2646 16.3396 15.2248 16.4604 15.2248 16.5864C15.2248 16.7123 15.2646 16.8331 15.3355 16.9222C15.4064 17.0113 15.5026 17.0613 15.6028 17.0613H27.6959C27.7961 17.0613 27.8923 17.0113 27.9632 16.9222C28.0341 16.8331 28.0739 16.7123 28.0739 16.5864C28.0739 16.4604 28.0341 16.3396 27.9632 16.2506C27.8923 16.1615 27.7961 16.1115 27.6959 16.1115Z" fill="#AFB9D2"/>
<path d="M27.6959 10.8429H15.6028C15.5026 10.8429 15.4064 10.8929 15.3355 10.982C15.2646 11.0711 15.2248 11.1919 15.2248 11.3178C15.2248 11.4438 15.2646 11.5646 15.3355 11.6536C15.4064 11.7427 15.5026 11.7927 15.6028 11.7927H27.6959C27.7961 11.7927 27.8923 11.7427 27.9632 11.6536C28.0341 11.5646 28.0739 11.4438 28.0739 11.3178C28.0739 11.1919 28.0341 11.0711 27.9632 10.982C27.8923 10.8929 27.7961 10.8429 27.6959 10.8429Z" fill="#AFB9D2"/>
</svg>
