<svg width="41" height="41" viewBox="0 0 41 41" fill="none" xmlns="http://www.w3.org/2000/svg">
<path d="M20.5 4.94824L3.53449 18.3793L20.5 31.8103L37.4655 18.3793L20.5 4.94824Z" fill="#FFC36E"/>
<path d="M35.3448 0H5.6552C5.26482 0 4.94827 0.316549 4.94827 0.70693V29.6897H36.0517V0.70693C36.0517 0.316549 35.7352 0 35.3448 0Z" fill="#EFF2FA"/>
<path d="M31.8103 16.9655H9.18968C8.7993 16.9655 8.48275 16.6489 8.48275 16.2586C8.48275 15.8682 8.7993 15.5516 9.18968 15.5516H31.8104C32.2008 15.5516 32.5173 15.8682 32.5173 16.2586C32.5173 16.6489 32.2007 16.9655 31.8103 16.9655Z" fill="#C7CFE2"/>
<path d="M31.8103 19.793H9.18969C8.7993 19.793 8.48276 19.4765 8.48276 19.0861C8.48276 18.6957 8.7993 18.3792 9.18969 18.3792H31.8104C32.2008 18.3792 32.5173 18.6957 32.5173 19.0861C32.5172 19.4765 32.2007 19.793 31.8103 19.793Z" fill="#C7CFE2"/>
<path d="M31.8103 22.6206H9.18969C8.7993 22.6206 8.48276 22.3041 8.48276 21.9137C8.48276 21.5233 8.7993 21.2068 9.18969 21.2068H31.8104C32.2008 21.2068 32.5173 21.5233 32.5173 21.9137C32.5173 22.3041 32.2007 22.6206 31.8103 22.6206Z" fill="#C7CFE2"/>
<path d="M31.8103 25.4483H9.18969C8.7993 25.4483 8.48276 25.1317 8.48276 24.7414C8.48276 24.351 8.7993 24.0344 9.18969 24.0344H31.8104C32.2008 24.0344 32.5173 24.351 32.5173 24.7414C32.5173 25.1317 32.2007 25.4483 31.8103 25.4483Z" fill="#C7CFE2"/>
<path d="M31.8103 28.2758H9.18969C8.7993 28.2758 8.48276 27.9592 8.48276 27.5689C8.48276 27.1785 8.7993 26.8619 9.18969 26.8619H31.8104C32.2008 26.8619 32.5173 27.1785 32.5173 27.5689C32.5172 27.9593 32.2007 28.2758 31.8103 28.2758Z" fill="#C7CFE2"/>
<path d="M3.53449 18.3793L20.5 31.8103L37.4655 18.3793V39.5862C37.4655 40.367 36.8326 41 36.0517 41H4.94827C4.16743 41 3.53449 40.367 3.53449 39.5862V18.3793Z" fill="#FFD782"/>
<path d="M23.5714 30.0005C21.7716 28.5757 19.2283 28.5757 17.4285 30.0005L4.00198 40.6299C4.25287 40.8577 4.58271 41 4.94827 41H36.0517C36.4173 41 36.7471 40.8576 36.998 40.6299L23.5714 30.0005Z" fill="#FFC36E"/>
<path d="M31.8103 4.94828H26.862C26.4717 4.94828 26.1551 4.63173 26.1551 4.24135C26.1551 3.85097 26.4717 3.53442 26.862 3.53442H31.8103C32.2007 3.53442 32.5172 3.85097 32.5172 4.24135C32.5172 4.63173 32.2007 4.94828 31.8103 4.94828Z" fill="#AFB9D2"/>
<path d="M31.8103 7.7758H24.0345C23.6441 7.7758 23.3276 7.45925 23.3276 7.06887C23.3276 6.67849 23.6441 6.36194 24.0345 6.36194H31.8103C32.2007 6.36194 32.5172 6.67849 32.5172 7.06887C32.5172 7.45933 32.2007 7.7758 31.8103 7.7758Z" fill="#AFB9D2"/>
<path d="M26.862 12.7242H14.138C13.7476 12.7242 13.431 12.4076 13.431 12.0172C13.431 11.6269 13.7476 11.3103 14.138 11.3103H26.8621C27.2525 11.3103 27.5691 11.6269 27.5691 12.0172C27.569 12.4076 27.2524 12.7242 26.862 12.7242Z" fill="#AFB9D2"/>
</svg>
