<svg width="38" height="38" viewBox="0 0 38 38" fill="none" xmlns="http://www.w3.org/2000/svg">
<path d="M31.6665 3.16699C32.5062 3.16699 33.3119 3.50005 33.9057 4.09375C34.4995 4.68753 34.8334 5.49328 34.8335 6.33301V33.25C34.8332 33.5113 34.7678 33.7689 34.644 33.999C34.5202 34.229 34.3413 34.4252 34.1235 34.5693C33.9058 34.7133 33.6559 34.8011 33.396 34.8252C33.1357 34.8492 32.8729 34.809 32.6323 34.707L29.5454 33.3926L26.4731 34.707C26.2779 34.7897 26.0679 34.832 25.8559 34.832C25.6439 34.832 25.434 34.7896 25.2387 34.707L22.1665 33.3926L19.0952 34.707C18.8998 34.7898 18.6892 34.832 18.477 34.832C18.265 34.832 18.055 34.7897 17.8598 34.707L14.7885 33.3926L11.7163 34.707C11.5163 34.7922 11.3008 34.8347 11.0835 34.833C10.7731 34.8306 10.47 34.7376 10.2124 34.5645C9.99456 34.421 9.81615 34.2254 9.69186 33.9961C9.56759 33.7669 9.5018 33.5107 9.50045 33.25V25.1904C11.7122 24.8165 13.7205 23.6724 15.1694 21.96C16.6184 20.2473 17.4142 18.0764 17.4165 15.833C17.4141 13.5897 16.6183 11.4196 15.1694 9.70703C13.7205 7.99445 11.7123 6.84955 9.50045 6.47559V6.33301C9.50054 5.49328 9.83342 4.68753 10.4272 4.09375C11.021 3.49998 11.8267 3.16704 12.6665 3.16699H31.6665ZM20.5835 22.167C20.1635 22.167 19.7603 22.3339 19.4633 22.6309C19.1667 22.9277 19.0005 23.3303 19.0005 23.75C19.0005 24.1697 19.1667 24.5723 19.4633 24.8691C19.7603 25.1661 20.1635 25.333 20.5835 25.333H28.5005C28.9202 25.3329 29.3228 25.166 29.6196 24.8691C29.9164 24.5722 30.0835 24.1698 30.0835 23.75C30.0835 23.3302 29.9164 22.9278 29.6196 22.6309C29.3228 22.334 28.9202 22.1671 28.5005 22.167H20.5835ZM7.91647 7.91699C8.33637 7.91701 8.73966 8.08394 9.03658 8.38086C9.33327 8.67775 9.50044 9.08026 9.50045 9.5H11.0835C11.5033 9.50003 11.9057 9.66705 12.2026 9.96387C12.4994 10.2607 12.6664 10.6632 12.6665 11.083C12.6665 11.5029 12.4995 11.9062 12.2026 12.2031C11.9057 12.4999 11.5032 12.667 11.0835 12.667H7.12545C6.9155 12.667 6.71337 12.75 6.5649 12.8984C6.41659 13.0468 6.33355 13.2482 6.33346 13.458C6.33346 13.668 6.41644 13.8701 6.5649 14.0186C6.71336 14.167 6.91551 14.25 7.12545 14.25H8.70846C9.75816 14.25 10.765 14.667 11.5073 15.4092C12.2495 16.1514 12.6664 17.1583 12.6665 18.208C12.6851 19.134 12.3788 20.0375 11.8003 20.7607C11.2217 21.4839 10.4079 21.9819 9.50045 22.167C9.50037 22.5867 9.3333 22.9893 9.03658 23.2861C8.73966 23.5831 8.33637 23.75 7.91647 23.75C7.49666 23.7499 7.09419 23.583 6.79733 23.2861C6.50046 22.9893 6.33354 22.5868 6.33346 22.167H4.75045C4.33055 22.167 3.92726 22 3.63033 21.7031C3.3334 21.4062 3.16647 21.0029 3.16647 20.583C3.16656 20.1633 3.33356 19.7607 3.63033 19.4639C3.92726 19.167 4.33054 19 4.75045 19H8.70846C8.91824 19 9.11962 18.9168 9.26803 18.7686C9.41648 18.6201 9.50045 18.418 9.50045 18.208C9.50036 17.9982 9.4164 17.7968 9.26803 17.6484C9.11961 17.5001 8.91831 17.417 8.70846 17.417H7.12545C6.14384 17.418 5.19671 17.0534 4.46822 16.3955C3.73985 15.7376 3.28178 14.833 3.18307 13.8564C3.08441 12.8798 3.35184 11.9007 3.93404 11.1104C4.51624 10.3201 5.37155 9.77442 6.33346 9.5791V9.5C6.33346 9.08014 6.50047 8.67778 6.79733 8.38086C7.09419 8.084 7.49664 7.91706 7.91647 7.91699ZM23.7505 15.833C23.3306 15.833 22.9273 16 22.6303 16.2969C22.3334 16.5938 22.1665 16.9971 22.1665 17.417C22.1665 17.8367 22.3336 18.2393 22.6303 18.5361C22.9273 18.833 23.3305 19 23.7505 19H28.5005C28.9202 18.9999 29.3228 18.833 29.6196 18.5361C29.9164 18.2393 30.0834 17.8368 30.0835 17.417C30.0835 16.9971 29.9165 16.5938 29.6196 16.2969C29.3228 16.0001 28.9201 15.8331 28.5005 15.833H23.7505Z" fill="currentColor"/>
</svg>
