<svg width="32" height="31" viewBox="0 0 32 31" fill="none" xmlns="http://www.w3.org/2000/svg">
<path d="M16 14.7712C17.9449 14.7712 19.8101 13.9931 21.1853 12.608C22.5605 11.2229 23.3331 9.34437 23.3331 7.38559C23.3331 5.42681 22.5605 3.54826 21.1853 2.16319C19.8101 0.778123 17.9449 0 16 0C14.0551 0 12.1899 0.778123 10.8147 2.16319C9.4395 3.54826 8.66691 5.42681 8.66691 7.38559C8.66691 9.34437 9.4395 11.2229 10.8147 12.608C12.1899 13.9931 14.0551 14.7712 16 14.7712ZM16 18.0161C6.25018 18.0161 0 23.435 0 26.0733V31H32V26.0733C32 22.8827 26.0829 18.0161 16 18.0161Z" fill="currentColor"/>
</svg>
